<svg width="195" height="152" viewBox="0 0 195 152" fill="none" xmlns="http://www.w3.org/2000/svg">
<g filter="url(#filter0_i_227_957)">
<path d="M173.934 49.7576C174.068 49.0011 174.138 48.2229 174.138 47.4286C174.138 39.998 168.014 33.9744 160.46 33.9744C154.845 33.9744 150.019 37.3035 147.913 42.0648C146.206 40.6155 143.992 39.7405 141.572 39.7405C136.176 39.7405 131.802 44.0909 131.802 49.4574C131.802 49.7563 131.816 50.0519 131.842 50.3439C129.247 51.5943 127.46 54.2181 127.46 57.2523C127.46 61.4984 130.959 64.9405 135.276 64.9405H172.184C176.501 64.9405 180 61.4984 180 57.2523C180 53.598 177.408 50.5392 173.934 49.7576Z" fill="url(#paint0_linear_227_957)"/>
</g>
<g filter="url(#filter1_f_227_957)">
<rect x="77.14" y="32.5" width="88.8" height="83.3136" rx="41.6568" fill="#FFEF9A"/>
</g>
<g filter="url(#filter2_i_227_957)">
<path d="M160.76 74.1569C160.76 95.9418 143.201 113.602 121.54 113.602C99.8795 113.602 82.3201 95.9418 82.3201 74.1569C82.3201 52.3721 99.8795 34.712 121.54 34.712C143.201 34.712 160.76 52.3721 160.76 74.1569Z" fill="url(#paint1_linear_227_957)"/>
</g>
<g filter="url(#filter3_i_227_957)">
<path d="M115.474 104.317C115.608 103.561 115.678 102.782 115.678 101.988C115.678 94.5575 109.554 88.5339 102 88.5339C96.3846 88.5339 91.5593 91.863 89.4528 96.6243C87.7463 95.175 85.5319 94.3 83.112 94.3C77.7163 94.3 73.3422 98.6504 73.3422 104.017C73.3422 104.316 73.3557 104.611 73.3823 104.903C70.787 106.154 69 108.778 69 111.812C69 116.058 72.4993 119.5 76.8159 119.5H113.724C118.041 119.5 121.54 116.058 121.54 111.812C121.54 108.158 118.948 105.099 115.474 104.317Z" fill="url(#paint2_linear_227_957)"/>
</g>
<defs>
<filter id="filter0_i_227_957" x="127.46" y="33.9744" width="52.54" height="40.9661" filterUnits="userSpaceOnUse" color-interpolation-filters="sRGB">
<feFlood flood-opacity="0" result="BackgroundImageFix"/>
<feBlend mode="normal" in="SourceGraphic" in2="BackgroundImageFix" result="shape"/>
<feColorMatrix in="SourceAlpha" type="matrix" values="0 0 0 0 0 0 0 0 0 0 0 0 0 0 0 0 0 0 127 0" result="hardAlpha"/>
<feOffset dy="11"/>
<feGaussianBlur stdDeviation="5"/>
<feComposite in2="hardAlpha" operator="arithmetic" k2="-1" k3="1"/>
<feColorMatrix type="matrix" values="0 0 0 0 1 0 0 0 0 1 0 0 0 0 1 0 0 0 1 0"/>
<feBlend mode="normal" in2="shape" result="effect1_innerShadow_227_957"/>
</filter>
<filter id="filter1_f_227_957" x="0.140015" y="-44.5" width="242.8" height="237.314" filterUnits="userSpaceOnUse" color-interpolation-filters="sRGB">
<feFlood flood-opacity="0" result="BackgroundImageFix"/>
<feBlend mode="normal" in="SourceGraphic" in2="BackgroundImageFix" result="shape"/>
<feGaussianBlur stdDeviation="38.5" result="effect1_foregroundBlur_227_957"/>
</filter>
<filter id="filter2_i_227_957" x="82.3201" y="34.712" width="78.4399" height="83.8898" filterUnits="userSpaceOnUse" color-interpolation-filters="sRGB">
<feFlood flood-opacity="0" result="BackgroundImageFix"/>
<feBlend mode="normal" in="SourceGraphic" in2="BackgroundImageFix" result="shape"/>
<feColorMatrix in="SourceAlpha" type="matrix" values="0 0 0 0 0 0 0 0 0 0 0 0 0 0 0 0 0 0 127 0" result="hardAlpha"/>
<feOffset dy="5"/>
<feGaussianBlur stdDeviation="9"/>
<feComposite in2="hardAlpha" operator="arithmetic" k2="-1" k3="1"/>
<feColorMatrix type="matrix" values="0 0 0 0 1 0 0 0 0 1 0 0 0 0 1 0 0 0 0.81 0"/>
<feBlend mode="normal" in2="shape" result="effect1_innerShadow_227_957"/>
</filter>
<filter id="filter3_i_227_957" x="69" y="88.5339" width="52.54" height="40.9661" filterUnits="userSpaceOnUse" color-interpolation-filters="sRGB">
<feFlood flood-opacity="0" result="BackgroundImageFix"/>
<feBlend mode="normal" in="SourceGraphic" in2="BackgroundImageFix" result="shape"/>
<feColorMatrix in="SourceAlpha" type="matrix" values="0 0 0 0 0 0 0 0 0 0 0 0 0 0 0 0 0 0 127 0" result="hardAlpha"/>
<feOffset dy="11"/>
<feGaussianBlur stdDeviation="5"/>
<feComposite in2="hardAlpha" operator="arithmetic" k2="-1" k3="1"/>
<feColorMatrix type="matrix" values="0 0 0 0 1 0 0 0 0 1 0 0 0 0 1 0 0 0 1 0"/>
<feBlend mode="normal" in2="shape" result="effect1_innerShadow_227_957"/>
</filter>
<linearGradient id="paint0_linear_227_957" x1="130.802" y1="62.1757" x2="183.532" y2="22.4588" gradientUnits="userSpaceOnUse">
<stop stop-color="white"/>
<stop offset="1" stop-color="white" stop-opacity="0.58"/>
</linearGradient>
<linearGradient id="paint1_linear_227_957" x1="115.583" y1="95.627" x2="148.132" y2="38.8666" gradientUnits="userSpaceOnUse">
<stop stop-color="#FF9900"/>
<stop offset="1" stop-color="#FFEE94"/>
</linearGradient>
<linearGradient id="paint2_linear_227_957" x1="72.3418" y1="116.735" x2="125.072" y2="77.0183" gradientUnits="userSpaceOnUse">
<stop stop-color="white"/>
<stop offset="1" stop-color="white" stop-opacity="0.58"/>
</linearGradient>
</defs>
</svg>
